# Blender 4.0.2
# www.blender.org
o Cylinder
v 0.000000 -0.010000 -1.000000
v 0.000000 0.010000 -1.000000
v 0.195090 -0.010000 -0.980785
v 0.195090 0.010000 -0.980785
v 0.382683 -0.010000 -0.923880
v 0.382683 0.010000 -0.923880
v 0.555570 -0.010000 -0.831470
v 0.555570 0.010000 -0.831470
v 0.707107 -0.010000 -0.707107
v 0.707107 0.010000 -0.707107
v 0.831470 -0.010000 -0.555570
v 0.831470 0.010000 -0.555570
v 0.923880 -0.010000 -0.382683
v 0.923880 0.010000 -0.382683
v 0.980785 -0.010000 -0.195090
v 0.980785 0.010000 -0.195090
v 1.000000 -0.010000 0.000000
v 1.000000 0.010000 0.000000
v 0.980785 -0.010000 0.195090
v 0.980785 0.010000 0.195090
v 0.923880 -0.010000 0.382683
v 0.923880 0.010000 0.382683
v 0.831470 -0.010000 0.555570
v 0.831470 0.010000 0.555570
v 0.707107 -0.010000 0.707107
v 0.707107 0.010000 0.707107
v 0.555570 -0.010000 0.831470
v 0.555570 0.010000 0.831470
v 0.382683 -0.010000 0.923880
v 0.382683 0.010000 0.923880
v 0.195090 -0.010000 0.980785
v 0.195090 0.010000 0.980785
v 0.000000 -0.010000 1.000000
v 0.000000 0.010000 1.000000
v -0.195090 -0.010000 0.980785
v -0.195090 0.010000 0.980785
v -0.382683 -0.010000 0.923880
v -0.382683 0.010000 0.923880
v -0.555570 -0.010000 0.831470
v -0.555570 0.010000 0.831470
v -0.707107 -0.010000 0.707107
v -0.707107 0.010000 0.707107
v -0.831470 -0.010000 0.555570
v -0.831470 0.010000 0.555570
v -0.923880 -0.010000 0.382683
v -0.923880 0.010000 0.382683
v -0.980785 -0.010000 0.195090
v -0.980785 0.010000 0.195090
v -1.000000 -0.010000 0.000000
v -1.000000 0.010000 0.000000
v -0.980785 -0.010000 -0.195090
v -0.980785 0.010000 -0.195090
v -0.923880 -0.010000 -0.382683
v -0.923880 0.010000 -0.382683
v -0.831470 -0.010000 -0.555570
v -0.831470 0.010000 -0.555570
v -0.707107 -0.010000 -0.707107
v -0.707107 0.010000 -0.707107
v -0.555570 -0.010000 -0.831470
v -0.555570 0.010000 -0.831470
v -0.382683 -0.010000 -0.923880
v -0.382683 0.010000 -0.923880
v -0.195090 -0.010000 -0.980785
v -0.195090 0.010000 -0.980785
vn 0.0980 -0.0000 -0.9952
vn 0.2903 -0.0000 -0.9569
vn 0.4714 -0.0000 -0.8819
vn 0.6344 -0.0000 -0.7730
vn 0.7730 -0.0000 -0.6344
vn 0.8819 -0.0000 -0.4714
vn 0.9569 -0.0000 -0.2903
vn 0.9952 -0.0000 -0.0980
vn 0.9952 -0.0000 0.0980
vn 0.9569 -0.0000 0.2903
vn 0.8819 -0.0000 0.4714
vn 0.7730 -0.0000 0.6344
vn 0.6344 -0.0000 0.7730
vn 0.4714 -0.0000 0.8819
vn 0.2903 -0.0000 0.9569
vn 0.0980 -0.0000 0.9952
vn -0.0980 -0.0000 0.9952
vn -0.2903 -0.0000 0.9569
vn -0.4714 -0.0000 0.8819
vn -0.6344 -0.0000 0.7730
vn -0.7730 -0.0000 0.6344
vn -0.8819 -0.0000 0.4714
vn -0.9569 -0.0000 0.2903
vn -0.9952 -0.0000 0.0980
vn -0.9952 -0.0000 -0.0980
vn -0.9569 -0.0000 -0.2903
vn -0.8819 -0.0000 -0.4714
vn -0.7730 -0.0000 -0.6344
vn -0.6344 -0.0000 -0.7730
vn -0.4714 -0.0000 -0.8819
vn -0.0000 1.0000 -0.0000
vn -0.2903 -0.0000 -0.9569
vn -0.0980 -0.0000 -0.9952
vn -0.0000 -1.0000 -0.0000
vt 1.000000 0.994931
vt 0.968750 0.994931
vt 0.937500 0.994931
vt 0.906250 0.994931
vt 0.875000 0.994931
vt 0.843750 0.994931
vt 0.812500 0.994931
vt 0.781250 0.994931
vt 0.750000 0.994931
vt 0.718750 0.994931
vt 0.687500 0.994931
vt 0.656250 0.994931
vt 0.625000 0.994931
vt 0.593750 0.994931
vt 0.562500 0.994931
vt 0.531250 0.994931
vt 0.500000 0.994931
vt 0.468750 0.994931
vt 0.437500 0.994931
vt 0.406250 0.994931
vt 0.375000 0.994931
vt 0.343750 0.994931
vt 0.312500 0.994931
vt 0.281250 0.994931
vt 0.250000 0.994931
vt 0.218750 0.994931
vt 0.187500 0.994931
vt 0.156250 0.994931
vt 0.125000 0.994931
vt 0.093750 0.994931
vt 0.062500 0.994931
vt 0.313192 0.039011
vt 0.960152 0.306991
vt 0.692172 0.953951
vt 0.031250 0.994931
vt 0.000000 0.994931
vt 0.987889 0.985076
vt 0.983613 0.981124
vt 0.986471 0.975209
vt 0.599283 0.982129
vt 0.502682 0.991644
vt 0.406081 0.982129
vt 0.313192 0.953951
vt 0.227584 0.908194
vt 0.152549 0.846614
vt 0.090969 0.771579
vt 0.045212 0.685972
vt 0.017034 0.593083
vt 0.007520 0.496481
vt 0.017034 0.399880
vt 0.045212 0.306991
vt 0.090969 0.221384
vt 0.152549 0.146349
vt 0.227584 0.084769
vt 0.406081 0.010833
vt 0.502682 0.001319
vt 0.599283 0.010833
vt 0.692172 0.039011
vt 0.777779 0.084769
vt 0.852815 0.146349
vt 0.914394 0.221384
vt 0.988330 0.399880
vt 0.997844 0.496481
vt 0.988330 0.593083
vt 0.960152 0.685972
vt 0.914394 0.771579
vt 0.852815 0.846614
vt 0.777779 0.908194
vt 0.987180 0.975112
vt 0.987889 0.975209
vt 0.988572 0.975495
vt 0.989200 0.975960
vt 0.989751 0.976586
vt 0.990203 0.977348
vt 0.990540 0.978217
vt 0.990746 0.979161
vt 0.990816 0.980142
vt 0.990746 0.981124
vt 0.990540 0.982067
vt 0.990203 0.982937
vt 0.989751 0.983699
vt 0.989200 0.984325
vt 0.988572 0.984790
vt 0.987180 0.985172
vt 0.986471 0.985076
vt 0.985788 0.984790
vt 0.985160 0.984325
vt 0.984609 0.983699
vt 0.984156 0.982937
vt 0.983820 0.982067
vt 0.983544 0.980142
vt 0.983613 0.979161
vt 0.983820 0.978217
vt 0.984156 0.977348
vt 0.984609 0.976586
vt 0.985160 0.975960
vt 0.985788 0.975495
s 0
f 2/1/1 3/2/1 1/1/1
f 4/2/2 5/3/2 3/2/2
f 6/3/3 7/4/3 5/3/3
f 8/4/4 9/5/4 7/4/4
f 10/5/5 11/6/5 9/5/5
f 12/6/6 13/7/6 11/6/6
f 14/7/7 15/8/7 13/7/7
f 16/8/8 17/9/8 15/8/8
f 18/9/9 19/10/9 17/9/9
f 20/10/10 21/11/10 19/10/10
f 22/11/11 23/12/11 21/11/11
f 24/12/12 25/13/12 23/12/12
f 26/13/13 27/14/13 25/13/13
f 28/14/14 29/15/14 27/14/14
f 30/15/15 31/16/15 29/15/15
f 32/16/16 33/17/16 31/16/16
f 34/17/17 35/18/17 33/17/17
f 36/18/18 37/19/18 35/18/18
f 38/19/19 39/20/19 37/19/19
f 40/20/20 41/21/20 39/20/20
f 42/21/21 43/22/21 41/21/21
f 44/22/22 45/23/22 43/22/22
f 46/23/23 47/24/23 45/23/23
f 48/24/24 49/25/24 47/24/24
f 50/25/25 51/26/25 49/25/25
f 52/26/26 53/27/26 51/26/26
f 54/27/27 55/28/27 53/27/27
f 56/28/28 57/29/28 55/28/28
f 58/29/29 59/30/29 57/29/29
f 60/30/30 61/31/30 59/30/30
f 38/32/31 22/33/31 6/34/31
f 62/31/32 63/35/32 61/31/32
f 64/35/33 1/36/33 63/35/33
f 31/37/34 47/38/34 63/39/34
f 2/1/1 4/2/1 3/2/1
f 4/2/2 6/3/2 5/3/2
f 6/3/3 8/4/3 7/4/3
f 8/4/4 10/5/4 9/5/4
f 10/5/5 12/6/5 11/6/5
f 12/6/6 14/7/6 13/7/6
f 14/7/7 16/8/7 15/8/7
f 16/8/8 18/9/8 17/9/8
f 18/9/9 20/10/9 19/10/9
f 20/10/10 22/11/10 21/11/10
f 22/11/11 24/12/11 23/12/11
f 24/12/12 26/13/12 25/13/12
f 26/13/13 28/14/13 27/14/13
f 28/14/14 30/15/14 29/15/14
f 30/15/15 32/16/15 31/16/15
f 32/16/16 34/17/16 33/17/16
f 34/17/17 36/18/17 35/18/17
f 36/18/18 38/19/18 37/19/18
f 38/19/19 40/20/19 39/20/19
f 40/20/20 42/21/20 41/21/20
f 42/21/21 44/22/21 43/22/21
f 44/22/22 46/23/22 45/23/22
f 46/23/23 48/24/23 47/24/23
f 48/24/24 50/25/24 49/25/24
f 50/25/25 52/26/25 51/26/25
f 52/26/26 54/27/26 53/27/26
f 54/27/27 56/28/27 55/28/27
f 56/28/28 58/29/28 57/29/28
f 58/29/29 60/30/29 59/30/29
f 60/30/30 62/31/30 61/31/30
f 6/34/31 4/40/31 2/41/31
f 2/41/31 64/42/31 62/43/31
f 62/43/31 60/44/31 58/45/31
f 58/45/31 56/46/31 54/47/31
f 54/47/31 52/48/31 50/49/31
f 50/49/31 48/50/31 46/51/31
f 46/51/31 44/52/31 42/53/31
f 42/53/31 40/54/31 38/32/31
f 38/32/31 36/55/31 34/56/31
f 34/56/31 32/57/31 30/58/31
f 30/58/31 28/59/31 26/60/31
f 26/60/31 24/61/31 22/33/31
f 22/33/31 20/62/31 18/63/31
f 18/63/31 16/64/31 14/65/31
f 14/65/31 12/66/31 10/67/31
f 10/67/31 8/68/31 6/34/31
f 6/34/31 2/41/31 62/43/31
f 62/43/31 58/45/31 54/47/31
f 54/47/31 50/49/31 46/51/31
f 46/51/31 42/53/31 38/32/31
f 38/32/31 34/56/31 30/58/31
f 30/58/31 26/60/31 22/33/31
f 22/33/31 18/63/31 14/65/31
f 14/65/31 10/67/31 6/34/31
f 6/34/31 62/43/31 54/47/31
f 54/47/31 46/51/31 38/32/31
f 38/32/31 30/58/31 22/33/31
f 22/33/31 14/65/31 6/34/31
f 6/34/31 54/47/31 38/32/31
f 62/31/32 64/35/32 63/35/32
f 64/35/33 2/36/33 1/36/33
f 63/39/34 1/69/34 3/70/34
f 3/70/34 5/71/34 7/72/34
f 7/72/34 9/73/34 11/74/34
f 11/74/34 13/75/34 15/76/34
f 15/76/34 17/77/34 19/78/34
f 19/78/34 21/79/34 23/80/34
f 23/80/34 25/81/34 27/82/34
f 27/82/34 29/83/34 31/37/34
f 31/37/34 33/84/34 35/85/34
f 35/85/34 37/86/34 39/87/34
f 39/87/34 41/88/34 43/89/34
f 43/89/34 45/90/34 47/38/34
f 47/38/34 49/91/34 51/92/34
f 51/92/34 53/93/34 55/94/34
f 55/94/34 57/95/34 59/96/34
f 59/96/34 61/97/34 63/39/34
f 63/39/34 3/70/34 7/72/34
f 7/72/34 11/74/34 15/76/34
f 15/76/34 19/78/34 23/80/34
f 23/80/34 27/82/34 31/37/34
f 31/37/34 35/85/34 39/87/34
f 39/87/34 43/89/34 47/38/34
f 47/38/34 51/92/34 55/94/34
f 55/94/34 59/96/34 63/39/34
f 63/39/34 7/72/34 15/76/34
f 15/76/34 23/80/34 31/37/34
f 31/37/34 39/87/34 47/38/34
f 47/38/34 55/94/34 63/39/34
f 63/39/34 15/76/34 31/37/34
